<svg width="464" height="960" viewBox="0 0 464 960" fill="none" xmlns="http://www.w3.org/2000/svg">
<circle cx="-17.5" cy="1053.5" r="388.5" fill="#FE0000"/>
<path d="M103.907 427.311H99.073C98.9847 426.685 98.8044 426.13 98.5322 425.644C98.26 425.151 97.9105 424.732 97.4838 424.386C97.057 424.04 96.5641 423.776 96.0049 423.592C95.4531 423.408 94.8535 423.316 94.206 423.316C93.0362 423.316 92.0172 423.606 91.149 424.188C90.2808 424.761 89.6076 425.6 89.1294 426.704C88.6511 427.8 88.412 429.132 88.412 430.699C88.412 432.31 88.6511 433.664 89.1294 434.76C89.615 435.857 90.2919 436.684 91.16 437.243C92.0282 437.803 93.0325 438.082 94.1729 438.082C94.813 438.082 95.4053 437.998 95.9497 437.828C96.5016 437.659 96.9908 437.413 97.4176 437.089C97.8443 436.758 98.1974 436.357 98.477 435.886C98.764 435.415 98.9626 434.878 99.073 434.275L103.907 434.297C103.782 435.334 103.469 436.335 102.969 437.299C102.476 438.255 101.81 439.112 100.971 439.87C100.14 440.62 99.1466 441.216 97.9914 441.658C96.8437 442.092 95.5451 442.309 94.0957 442.309C92.0797 442.309 90.2771 441.853 88.6879 440.941C87.1061 440.028 85.8553 438.708 84.9356 436.979C84.0233 435.25 83.5671 433.156 83.5671 430.699C83.5671 428.234 84.0307 426.137 84.9577 424.408C85.8847 422.679 87.1429 421.362 88.7321 420.457C90.3213 419.545 92.1091 419.089 94.0957 419.089C95.4053 419.089 96.6193 419.273 97.7376 419.641C98.8633 420.009 99.8602 420.546 100.728 421.252C101.597 421.951 102.303 422.808 102.847 423.823C103.399 424.839 103.752 426.001 103.907 427.311ZM113.355 419.398V442H108.577V419.398H113.355ZM137.435 419.398V442H133.308L123.474 427.774H123.309V442H118.53V419.398H122.724L132.48 433.612H132.679V419.398H137.435ZM142.626 442V419.398H157.856V423.338H147.405V428.723H157.073V432.663H147.405V438.06H157.901V442H142.626ZM162.899 419.398H168.792L175.016 434.584H175.281L181.506 419.398H187.399V442H182.764V427.289H182.576L176.727 441.89H173.571L167.721 427.234H167.534V442H162.899V419.398ZM196.475 442H191.354L199.157 419.398H205.315L213.107 442H207.986L202.324 424.563H202.148L196.475 442ZM196.155 433.116H208.251V436.846H196.155V433.116ZM239.467 419.398H244.246V434.076C244.246 435.724 243.852 437.166 243.065 438.402C242.285 439.638 241.192 440.602 239.787 441.294C238.382 441.978 236.745 442.32 234.876 442.32C233 442.32 231.359 441.978 229.954 441.294C228.548 440.602 227.456 439.638 226.676 438.402C225.896 437.166 225.506 435.724 225.506 434.076V419.398H230.285V433.668C230.285 434.529 230.472 435.294 230.848 435.963C231.23 436.633 231.767 437.159 232.459 437.541C233.15 437.924 233.956 438.115 234.876 438.115C235.803 438.115 236.609 437.924 237.293 437.541C237.984 437.159 238.518 436.633 238.893 435.963C239.276 435.294 239.467 434.529 239.467 433.668V419.398ZM254.199 419.398V442H249.42V419.398H254.199ZM267.81 442V419.398H272.588V429.364H272.886L281.02 419.398H286.748L278.36 429.518L286.847 442H281.13L274.939 432.708L272.588 435.577V442H267.81ZM295.258 419.398V442H290.48V419.398H295.258ZM299.572 423.338V419.398H318.135V423.338H311.215V442H306.492V423.338H299.572Z" fill="#A1A7B7"/>
<path d="M130.016 177.395L156.201 203.579C157.411 204.789 157.411 206.774 156.201 208.008C154.991 209.218 153.031 209.242 151.796 208.032L151.772 208.008C150.562 206.822 148.626 206.846 147.416 208.032L132.509 222.94C131.299 224.15 129.339 224.15 128.129 222.94C126.919 221.73 126.919 219.769 128.129 218.559L143.109 203.579C144.27 202.418 144.27 200.506 143.109 199.344L142.963 199.199C141.802 198.038 139.89 198.038 138.728 199.199L117.069 220.858C115.859 222.068 113.899 222.068 112.689 220.858C112.084 220.253 111.794 219.455 111.794 218.68C111.794 217.882 112.084 217.107 112.689 216.502L134.3 194.892C134.905 194.287 135.195 193.488 135.195 192.714C135.195 191.915 134.905 191.141 134.3 190.536C133.09 189.326 131.129 189.326 129.919 190.536L119.465 200.99C118.255 202.2 116.295 202.2 115.085 200.99C114.48 200.385 114.189 199.586 114.189 198.812C114.189 198.013 114.504 197.239 115.085 196.634L125.612 186.107C126.773 184.945 126.773 183.034 125.612 181.872L125.563 181.824C124.958 181.219 124.644 180.42 124.644 179.621C124.644 178.823 124.958 178.024 125.563 177.419C126.822 176.185 128.806 176.185 130.016 177.395Z" fill="#FEFEFE"/>
<path d="M157.966 175.653C164.379 182.066 165.129 191.988 160.217 199.224C159.2 200.724 157.071 200.942 155.764 199.659L133.959 177.855C132.677 176.572 132.87 174.443 134.395 173.402C141.631 168.49 151.553 169.24 157.966 175.653Z" fill="#FEFEFE"/>
<path d="M163.598 174.347C164.798 173.147 164.798 171.201 163.598 170C162.398 168.8 160.452 168.8 159.251 170C158.051 171.201 158.051 173.147 159.251 174.347C160.452 175.547 162.398 175.547 163.598 174.347Z" fill="#FEFEFE"/>
<rect x="104.869" y="207.159" width="7.33686" height="6.13145" rx="1.34417" transform="rotate(-45 104.869 207.159)" fill="#FEFEFE"/>
<rect x="102.844" y="226.398" width="7.33686" height="6.13145" rx="1.34417" transform="rotate(-45 102.844 226.398)" fill="#FEFEFE"/>
<rect x="118.032" y="228.424" width="7.33686" height="6.13145" rx="1.34417" transform="rotate(-45 118.032 228.424)" fill="#FEFEFE"/>
<path d="M95.303 335L83.166 297.9H92.07L102.617 330.76H98.165L109.189 297.9H117.139L127.739 330.76H123.446L134.258 297.9H142.473L130.336 335H121.114L111.733 306.168H114.171L104.525 335H95.303ZM158.712 335.424C155.461 335.424 152.599 334.788 150.126 333.516C147.688 332.244 145.798 330.513 144.455 328.322C143.112 326.096 142.441 323.57 142.441 320.743C142.441 317.881 143.095 315.355 144.402 313.164C145.745 310.938 147.564 309.207 149.861 307.97C152.158 306.698 154.755 306.062 157.652 306.062C160.443 306.062 162.952 306.663 165.178 307.864C167.439 309.03 169.224 310.726 170.531 312.952C171.838 315.143 172.492 317.775 172.492 320.849C172.492 321.167 172.474 321.538 172.439 321.962C172.404 322.351 172.368 322.722 172.333 323.075H149.172V318.252H167.987L164.807 319.683C164.807 318.199 164.507 316.909 163.906 315.814C163.305 314.719 162.475 313.871 161.415 313.27C160.355 312.634 159.118 312.316 157.705 312.316C156.292 312.316 155.037 312.634 153.942 313.27C152.882 313.871 152.052 314.736 151.451 315.867C150.85 316.962 150.55 318.27 150.55 319.789V321.061C150.55 322.616 150.886 323.994 151.557 325.195C152.264 326.361 153.235 327.262 154.472 327.898C155.744 328.499 157.228 328.799 158.924 328.799C160.443 328.799 161.768 328.569 162.899 328.11C164.065 327.651 165.125 326.962 166.079 326.043L170.478 330.813C169.171 332.297 167.528 333.445 165.549 334.258C163.57 335.035 161.291 335.424 158.712 335.424ZM177.997 335V295.674H186.265V335H177.997ZM207.718 335.424C204.644 335.424 201.906 334.806 199.503 333.569C197.1 332.297 195.21 330.548 193.832 328.322C192.489 326.096 191.818 323.57 191.818 320.743C191.818 317.881 192.489 315.355 193.832 313.164C195.21 310.938 197.1 309.207 199.503 307.97C201.906 306.698 204.644 306.062 207.718 306.062C210.721 306.062 213.336 306.698 215.562 307.97C217.788 309.207 219.431 310.991 220.491 313.323L214.078 316.768C213.336 315.425 212.4 314.436 211.269 313.8C210.174 313.164 208.972 312.846 207.665 312.846C206.252 312.846 204.98 313.164 203.849 313.8C202.718 314.436 201.817 315.337 201.146 316.503C200.51 317.669 200.192 319.082 200.192 320.743C200.192 322.404 200.51 323.817 201.146 324.983C201.817 326.149 202.718 327.05 203.849 327.686C204.98 328.322 206.252 328.64 207.665 328.64C208.972 328.64 210.174 328.34 211.269 327.739C212.4 327.103 213.336 326.096 214.078 324.718L220.491 328.216C219.431 330.513 217.788 332.297 215.562 333.569C213.336 334.806 210.721 335.424 207.718 335.424ZM238.457 335.424C235.419 335.424 232.716 334.788 230.348 333.516C228.016 332.244 226.161 330.513 224.783 328.322C223.441 326.096 222.769 323.57 222.769 320.743C222.769 317.881 223.441 315.355 224.783 313.164C226.161 310.938 228.016 309.207 230.348 307.97C232.716 306.698 235.419 306.062 238.457 306.062C241.461 306.062 244.146 306.698 246.513 307.97C248.881 309.207 250.736 310.92 252.078 313.111C253.421 315.302 254.092 317.846 254.092 320.743C254.092 323.57 253.421 326.096 252.078 328.322C250.736 330.513 248.881 332.244 246.513 333.516C244.146 334.788 241.461 335.424 238.457 335.424ZM238.457 328.64C239.835 328.64 241.072 328.322 242.167 327.686C243.263 327.05 244.128 326.149 244.764 324.983C245.4 323.782 245.718 322.368 245.718 320.743C245.718 319.082 245.4 317.669 244.764 316.503C244.128 315.337 243.263 314.436 242.167 313.8C241.072 313.164 239.835 312.846 238.457 312.846C237.079 312.846 235.843 313.164 234.747 313.8C233.652 314.436 232.769 315.337 232.097 316.503C231.461 317.669 231.143 319.082 231.143 320.743C231.143 322.368 231.461 323.782 232.097 324.983C232.769 326.149 233.652 327.05 234.747 327.686C235.843 328.322 237.079 328.64 238.457 328.64ZM296.136 306.062C298.397 306.062 300.393 306.521 302.125 307.44C303.891 308.323 305.269 309.701 306.259 311.574C307.283 313.411 307.796 315.779 307.796 318.676V335H299.528V319.948C299.528 317.651 299.051 315.955 298.097 314.86C297.143 313.765 295.8 313.217 294.069 313.217C292.867 313.217 291.79 313.5 290.836 314.065C289.882 314.595 289.14 315.408 288.61 316.503C288.08 317.598 287.815 318.994 287.815 320.69V335H279.547V319.948C279.547 317.651 279.07 315.955 278.116 314.86C277.197 313.765 275.872 313.217 274.141 313.217C272.939 313.217 271.862 313.5 270.908 314.065C269.954 314.595 269.212 315.408 268.682 316.503C268.152 317.598 267.887 318.994 267.887 320.69V335H259.619V306.486H267.516V314.277L266.032 311.998C267.021 310.055 268.417 308.588 270.219 307.599C272.056 306.574 274.141 306.062 276.473 306.062C279.087 306.062 281.366 306.733 283.31 308.076C285.288 309.383 286.596 311.397 287.232 314.118L284.317 313.323C285.271 311.097 286.79 309.33 288.875 308.023C290.995 306.716 293.415 306.062 296.136 306.062ZM329.565 335.424C326.314 335.424 323.452 334.788 320.979 333.516C318.541 332.244 316.65 330.513 315.308 328.322C313.965 326.096 313.294 323.57 313.294 320.743C313.294 317.881 313.947 315.355 315.255 313.164C316.597 310.938 318.417 309.207 320.714 307.97C323.01 306.698 325.607 306.062 328.505 306.062C331.296 306.062 333.805 306.663 336.031 307.864C338.292 309.03 340.076 310.726 341.384 312.952C342.691 315.143 343.345 317.775 343.345 320.849C343.345 321.167 343.327 321.538 343.292 321.962C343.256 322.351 343.221 322.722 343.186 323.075H320.025V318.252H338.84L335.66 319.683C335.66 318.199 335.359 316.909 334.759 315.814C334.158 314.719 333.328 313.871 332.268 313.27C331.208 312.634 329.971 312.316 328.558 312.316C327.144 312.316 325.89 312.634 324.795 313.27C323.735 313.871 322.904 314.736 322.304 315.867C321.703 316.962 321.403 318.27 321.403 319.789V321.061C321.403 322.616 321.738 323.994 322.41 325.195C323.116 326.361 324.088 327.262 325.325 327.898C326.597 328.499 328.081 328.799 329.777 328.799C331.296 328.799 332.621 328.569 333.752 328.11C334.918 327.651 335.978 326.962 336.932 326.043L341.331 330.813C340.023 332.297 338.38 333.445 336.402 334.258C334.423 335.035 332.144 335.424 329.565 335.424ZM375.519 335.424C372.162 335.424 369.548 334.576 367.675 332.88C365.802 331.149 364.866 328.587 364.866 325.195V300.179H373.134V325.089C373.134 326.29 373.452 327.227 374.088 327.898C374.724 328.534 375.59 328.852 376.685 328.852C377.992 328.852 379.105 328.499 380.024 327.792L382.25 333.622C381.402 334.223 380.377 334.682 379.176 335C378.01 335.283 376.791 335.424 375.519 335.424ZM360.467 313.482V307.122H380.236V313.482H360.467ZM399.579 335.424C396.541 335.424 393.838 334.788 391.47 333.516C389.138 332.244 387.283 330.513 385.905 328.322C384.563 326.096 383.891 323.57 383.891 320.743C383.891 317.881 384.563 315.355 385.905 313.164C387.283 310.938 389.138 309.207 391.47 307.97C393.838 306.698 396.541 306.062 399.579 306.062C402.583 306.062 405.268 306.698 407.635 307.97C410.003 309.207 411.858 310.92 413.2 313.111C414.543 315.302 415.214 317.846 415.214 320.743C415.214 323.57 414.543 326.096 413.2 328.322C411.858 330.513 410.003 332.244 407.635 333.516C405.268 334.788 402.583 335.424 399.579 335.424ZM399.579 328.64C400.957 328.64 402.194 328.322 403.289 327.686C404.385 327.05 405.25 326.149 405.886 324.983C406.522 323.782 406.84 322.368 406.84 320.743C406.84 319.082 406.522 317.669 405.886 316.503C405.25 315.337 404.385 314.436 403.289 313.8C402.194 313.164 400.957 312.846 399.579 312.846C398.201 312.846 396.965 313.164 395.869 313.8C394.774 314.436 393.891 315.337 393.219 316.503C392.583 317.669 392.265 319.082 392.265 320.743C392.265 322.368 392.583 323.782 393.219 324.983C393.891 326.149 394.774 327.05 395.869 327.686C396.965 328.322 398.201 328.64 399.579 328.64Z" fill="#111719"/>
<path d="M100.81 393.54C98.38 393.54 96.115 393.15 94.015 392.37C91.945 391.56 90.145 390.42 88.615 388.95C87.085 387.48 85.885 385.755 85.015 383.775C84.175 381.795 83.755 379.62 83.755 377.25C83.755 374.88 84.175 372.705 85.015 370.725C85.885 368.745 87.085 367.02 88.615 365.55C90.175 364.08 91.99 362.955 94.06 362.175C96.13 361.365 98.395 360.96 100.855 360.96C103.585 360.96 106.045 361.44 108.235 362.4C110.455 363.33 112.315 364.71 113.815 366.54L109.135 370.86C108.055 369.63 106.855 368.715 105.535 368.115C104.215 367.485 102.775 367.17 101.215 367.17C99.745 367.17 98.395 367.41 97.165 367.89C95.935 368.37 94.87 369.06 93.97 369.96C93.07 370.86 92.365 371.925 91.855 373.155C91.375 374.385 91.135 375.75 91.135 377.25C91.135 378.75 91.375 380.115 91.855 381.345C92.365 382.575 93.07 383.64 93.97 384.54C94.87 385.44 95.935 386.13 97.165 386.61C98.395 387.09 99.745 387.33 101.215 387.33C102.775 387.33 104.215 387.03 105.535 386.43C106.855 385.8 108.055 384.855 109.135 383.595L113.815 387.915C112.315 389.745 110.455 391.14 108.235 392.1C106.045 393.06 103.57 393.54 100.81 393.54ZM118.738 393V361.5H126.028V393H118.738ZM133.504 393V361.5H139.534L158.119 384.18H155.194V361.5H162.394V393H156.409L137.779 370.32H140.704V393H133.504ZM176.551 374.19H191.716V379.86H176.551V374.19ZM177.091 387.15H194.236V393H169.846V361.5H193.651V367.35H177.091V387.15ZM200.037 393V361.5H206.067L219.477 383.73H216.282L229.467 361.5H235.452L235.542 393H228.702L228.657 371.985H229.917L219.387 389.67H216.102L205.347 371.985H206.877V393H200.037ZM238.875 393L252.915 361.5H260.115L274.2 393H266.55L255.03 365.19H257.91L246.345 393H238.875ZM245.895 386.25L247.83 380.715H264.03L266.01 386.25H245.895Z" fill="#FE0000"/>
<circle cx="-31.5" cy="-268.5" r="388.5" fill="#FE0000"/>
<path d="M458.728 312.282C459.3 339.89 308.228 516.282 288.842 544.049C160.228 483.282 18.3002 478.39 17.7279 450.782C17.1555 423.174 261.234 520.854 288.842 520.282C316.45 519.71 458.155 284.674 458.728 312.282Z" fill="#FE0000"/>
<path d="M195.427 245.257C195.208 284.931 173.216 213.526 145.602 213.373C117.988 213.221 95.2094 284.379 95.4285 244.705C95.6476 205.031 118.211 172.992 145.824 173.145C173.438 173.297 195.646 205.583 195.427 245.257Z" fill="#FE0000"/>
<path d="M396.343 246.11C395.029 285.763 375.016 213.777 347.417 212.863C319.818 211.948 295.084 282.451 296.398 242.798C297.712 203.145 321.151 171.741 348.75 172.656C376.349 173.57 397.657 206.457 396.343 246.11Z" fill="#FE0000"/>
</svg>
